<?xml version="1.0" encoding="utf-8"?>
<!-- Generator: Adobe Illustrator 16.0.0, SVG Export Plug-In . SVG Version: 6.00 Build 0)  -->
<!DOCTYPE svg PUBLIC "-//W3C//DTD SVG 1.1//EN" "http://www.w3.org/Graphics/SVG/1.1/DTD/svg11.dtd">
<svg version="1.1" id="Layer_1" xmlns="http://www.w3.org/2000/svg" xmlns:xlink="http://www.w3.org/1999/xlink" x="0px" y="0px"
	 width="2100px" height="1100px" viewBox="0 0 2100 1100" enable-background="new 0 0 2100 1100" xml:space="preserve">
<g>
	<path fill="#FFFFFF" d="M972.514,152.006c5.393,4.933,13.504,7.428,24.322,7.428c11.1,0,19.975-2.994,26.681-8.945
		c6.696-5.931,10.044-13.954,10.044-24.07c0-8.35-2.988-14.8-8.909-19.348c-5.942-4.53-13.649-6.834-23.153-6.834
		c-10.594,0-19.424,2.976-26.479,8.926c-7.078,5.931-10.594,13.341-10.594,22.189C964.426,140.201,967.076,147.092,972.514,152.006z
		"/>
	<path fill="#FFFFFF" d="M922.814,1002.026c0.482-7.945,2.482-15.453,5.561-22.42c-19.693,0.96-39.207-6.181-53.43-20.155
		c-4.482-4.413-8.335-9.366-11.424-14.646c-20.952,8.773-34.77,29.081-34.77,51.769c0,24.339,15.851,45.78,39.353,53.439
		c21.692,7.044,45.229,0.747,60.35-15.605C924.017,1024.446,921.949,1013.37,922.814,1002.026z"/>
	<path fill="#FFFFFF" d="M831.256,811c-6.043-8-10.244-16.805-12.514-26.229c-23.592-0.789-45.397,12.826-54.643,34.496
		c-9.875,23.055-3.168,49.624,16.57,65.46c18.12,14.529,43.195,16.565,63.483,5.872c-2.033-1.938-3.888-3.982-5.572-6.189
		c-16.75-21.113-19.39-49.41-7.381-73.41H831.256z"/>
	<path fill="#FFFFFF" d="M855.196,899.544c-0.169-0.074-0.314-0.094-0.349-0.209c-25.591,16.046-58.877,14.3-82.502-4.645
		c-0.686-0.615-1.506-1.27-2.169-1.939c-18.985,16.065-25.456,42.496-15.054,65.53c10.594,23.342,35.557,36.47,60.731,32.785
		c2.09-25.489,18.334-47.815,42.24-57.987c-3.752-10.635-4.752-22.134-2.933-33.496L855.196,899.544z"/>
	<path fill="#FFFFFF" d="M714.703,982.18c-17.941-9.021-30.748-25.013-35.826-43.438c-22.737,3.359-41.285,19.77-46.913,41.825
		c-5.887,22.784,3.303,46.702,22.962,60.081c18.57,12.609,42.791,13.263,61.945,1.994c-3.066-5.682-5.438-11.882-6.785-18.446
		C706.996,1009.705,708.816,995.058,714.703,982.18z"/>
	<path fill="#FFFFFF" d="M739.43,953.022c-6.809-25.319,1.662-52.402,21.816-69.695l-0.045,0.017
		c-5.123-6.525-8.977-13.818-11.459-21.535l-0.09,2.629c-28.389-1.362-53.385,17.795-59.047,45.165
		c-5.111,25.145,7.662,50.119,30.523,61.347C725.982,964.021,732.139,957.898,739.43,953.022z"/>
	<path fill="#FFFFFF" d="M744.182,965.593c-17.301,12.996-25.771,34.63-21.256,55.955c4.955,23.551,24.514,41.403,48.835,44.492
		c23.39,2.957,46.184-8.464,57.44-28.678c-7.156-9.672-11.763-21.151-13.077-33.358
		C786.512,1007.573,757.393,992.352,744.182,965.593z"/>
	<path fill="#FFFFFF" d="M2047.976,631.819c-1.954-3.053-4.617-4.569-7.92-4.569c-3.909,0-7.347,1.784-10.481,5.298
		c-12.076,14.185-21.738,24.301-28.928,30.347c-7.234,6.064-14.301,9.099-21.221,9.099c-5.438,0-9.875-3.146-13.313-9.482
		c-3.506-6.296-5.764-16.815-6.809-31.479c23.693-39.926,42.611-78.892,56.789-116.819c14.133-37.929,21.243-71.041,21.243-99.372
		c0-19.962-3.673-34.877-11.009-44.762c-7.348-9.846-16.57-14.78-27.613-14.78c-22.424,0-40.545,17.373-54.307,52.154
		c-13.75,34.76-23.074,76.662-27.983,125.725c-19.054,2.035-36.219,8.542-51.52,19.56c-15.347,11-27.389,25.146-36.151,42.48
		c-8.481,16.717-12.805,34.822-13.083,54.285c-5.128,5.495-9.579,9.907-13.34,13.223c-7.11,6.197-13.233,9.27-18.39,9.27
		c-3.303,0-6.021-1.324-8.111-3.975c-2.033-2.667-3.066-6.371-3.066-11.17c0-7.601,3.617-27.563,10.829-59.945
		c6.426-28.33,9.628-45.646,9.628-51.962c0-3.801-1.135-6.391-3.472-7.772c-2.27-1.381-6.437-2.073-12.323-2.073
		c-8.516,0-14.908,1.633-19.109,4.914c-4.303,3.282-7.471,8.713-9.459,16.296c-6.225,22.516-12.594,41.48-19.154,56.895
		c-6.572,15.432-12.729,26.93-18.57,34.53c-5.752,7.602-10.594,11.363-14.492,11.363c-2.809,0-4.842-1.075-6.156-3.205
		c-1.27-2.151-1.955-5.894-1.955-11.211c0-8.848,2.584-26.546,7.74-53.092c1.551-7.582,3.641-16.046,6.225-25.432
		c2.785-11.595,4.201-18.43,4.201-20.443c0-3.553-1.078-6.22-3.27-7.987c-2.168-1.746-6.1-2.628-11.762-2.628
		c-10.055,0-17.401,1.633-22.008,4.914c-4.617,3.282-8.257,8.713-10.829,16.296c-2.333,6.979-4.399,13.802-6.216,20.481
		c-7.525-8.546-16.253-15.521-26.24-20.827c-11.818-6.354-27.534-13.418-47.138-21.268c-16.211-6.315-28.793-11.766-37.803-16.316
		c-9.01-4.548-16.581-10.229-22.592-17.083c-6.089-6.796-9.11-15.028-9.11-24.626c0-14.397,5.842-25.605,17.57-33.571
		c11.729-7.968,28.658-11.939,50.8-11.939c15.717,0,28.849,2.783,39.387,8.329c10.549,5.585,15.852,13.686,15.852,24.282
		c0,2.035-0.349,6.834-1.18,14.436c-0.753,4.029-1.124,8.444-1.124,13.244c0,5.565,2.225,10.384,6.741,14.416
		c4.493,4.067,10.099,6.064,16.806,6.064c9.504,0,16.75-4.032,21.637-12.132c4.854-8.081,7.336-20.096,7.336-36.028
		c0-16.162-4.718-29.828-14.132-40.962c-9.37-11.132-21.952-19.387-37.612-24.839c-15.717-5.45-32.972-8.137-51.755-8.137
		c-25.231,0-47.184,3.914-65.888,11.728c-18.648,7.85-32.961,18.867-42.893,32.997c-9.908,14.165-14.852,30.347-14.852,48.561
		c0,17.449,4.438,32.037,13.313,43.803c8.932,11.766,19.627,21.058,32.074,27.873c12.492,6.832,28.658,14.03,48.497,21.631
		c15.436,6.065,27.378,11.192,35.904,15.376c8.504,4.146,15.581,9.328,21.232,15.528c5.661,6.199,8.515,13.607,8.515,22.188
		c0,13.917-6.212,24.724-18.569,32.44c-12.313,7.697-29.478,11.556-51.351,11.556c-21.109,0-37.522-2.764-49.25-8.332
		c-2.377-1.124-4.499-2.375-6.393-3.741c-0.979-22.31-4.237-43.978-10.516-64.092c-38.117-122.714-124.788-235.771-152.816-250.187
		c-27.984-14.471-35.725-28.907-12.763-40.885c22.951-12.091,45.857-24.108,45.857-67.43c0-43.285-7.64-79.371-40.734-81.77
		c-33.073-2.399-50.958,24.032-61.181,0c-10.279-24.089-7.662-39.714,2.584-49.369c10.178-9.617,22.906-42.056,10.178-56.548
		c-12.762-14.416-145.201-16.795-160.568-10.768c-15.29,5.931-25.39,30.059-22.851,42.017c2.583,12.074,17.828,9.713,19.098,30.079
		c1.27,20.5-7.605,90.522-26.658,122.75c-12.054,20.351-22.242,35.445-27.37,45.298c-0.455,0.43-0.904,0.885-1.344,1.385
		c-11.594,13.666-20.873,23.667-27.794,29.963c-6.987,6.333-12.772,9.463-17.401,9.463c-4.887,0-8.369-1.997-10.459-6.048
		c-2.033-4.068-3.09-9.866-3.09-17.447c0-5.26,0.888-13.089,2.65-23.444c1.922-4.2,2.889-9.153,2.889-14.868
		c0-0.155-0.01-0.301-0.012-0.454c1.1-5.441,2.355-11.334,3.786-17.725c4.876-23.033,7.325-37.679,7.325-44.032
		c0-8.58-6.572-12.861-19.705-12.861c-8.504,0-14.684,1.479-18.514,4.53c-3.91,3.033-6.977,8.6-9.279,16.681
		c-4.674,15.433-8.426,32.056-11.414,49.887c-0.553,3.335-1.054,6.557-1.503,9.665c-6.277-0.109-9.405-4.535-9.405-13.272
		c0-2.535,1.033-8.85,3.066-18.965c2.371-12.649,3.539-20.597,3.539-23.898c0-16.431-8.381-24.627-25.131-24.627
		c-8.504,0-17.851,2.879-27.973,8.695c-10.201,5.816-20.569,15.548-31.118,29.234c-10.56,13.629-20.109,31.326-28.613,53.073
		c1.033-11.131,2.337-20.481,3.887-28.062c1.539-7.582,3.573-16.431,6.156-26.546c3.888-14.167,5.808-23.265,5.808-27.296
		c0-3.551-1-5.97-3.089-7.217c-2.033-1.268-5.651-1.882-10.808-1.882c-9.525,0-16.951,1.689-22.209,5.106
		c-5.235,3.398-9.089,8.772-11.357,16.105c-4.493,13.9-7.907,28.174-10.279,42.807c-11.498,2.511-21.744,4.05-30.703,4.604
		c-2.033-19.463-9.055-35.835-21.053-49.1c-11.941-13.302-27.703-19.924-47.262-19.924c-15.998,0-30.534,4.242-43.656,12.707
		c-13.133,8.465-23.445,20.251-30.883,35.299c-7.515,15.03-11.233,32.152-11.233,51.345c0,5.106,0.376,10.075,1.113,14.912
		c-5.681,5.914-10.688,10.562-15.01,13.939c-7.74,6.065-15.852,9.08-24.355,9.08c-3.573,0-8.111-0.731-13.503-2.248
		c7.751-10.384,13.772-21.863,18.154-34.511c4.403-12.629,6.571-25.683,6.571-39.1c0-18.426-4.572-33.36-13.728-44.724
		c-9.145-11.382-20.907-17.083-35.32-17.083c-9.043,0-17.514,2.227-25.49,6.661c-8.01,4.415-16.121,11.67-24.355,21.786
		c-0.225-3.033-0.371-7.697-0.371-14.031c-0.27-6.296-1.617-10.557-4.055-12.726c-2.449-2.131-6.336-3.225-11.773-3.225
		c-9.246,0-16.986,2.169-23.199,6.45c-6.156,4.318-9.088,10.134-8.875,17.448c0.506,14.435,0.787,40.098,0.787,77.028
		c-8.002,13.103-15.297,25.832-21.914,38.204c-0.42,0.043-0.835,0.072-1.24,0.072c-3.123,0-5.661-1.134-7.561-3.398
		c-1.954-2.264-2.887-5.298-2.887-9.099c0-11.382,2.988-31.615,8.875-60.694c3.842-19.962,5.785-32.631,5.785-37.929
		c0-8.849-6.302-13.264-18.884-13.264c-5.966,0-11.628,0.48-17.031,1.517c-1.269-5.567-2.887-9.444-4.819-11.575
		c-1.921-2.149-5.707-3.225-11.38-3.225c-17.784,0-34.601,5.509-50.396,16.507c-12.953,8.988-23.789,20.351-32.523,34.061
		c-0.715-1.072-1.455-2.129-2.245-3.156c-8.381-10.865-18.47-19.464-30.355-25.779c-11.84-6.334-27.523-13.397-47.082-21.248
		c-16.244-6.315-28.838-11.767-37.848-16.316c-9.01-4.568-16.57-10.231-22.592-17.083c-6.077-6.795-9.11-15.03-9.11-24.627
		c0-14.416,5.886-25.625,17.614-33.571c11.684-7.966,28.613-11.939,50.756-11.939c15.717,0,28.85,2.784,39.387,8.331
		c10.561,5.586,15.852,13.686,15.852,24.282c0,2.016-0.404,6.833-1.168,14.434c-0.764,4.012-1.135,8.446-1.135,13.245
		c0,5.566,2.225,10.384,6.74,14.415c4.539,4.069,10.111,6.065,16.817,6.065c9.493,0,16.75-4.031,21.592-12.15
		c4.933-8.062,7.37-20.097,7.37-36.009c0-16.162-4.707-29.829-14.11-40.981c-9.38-11.113-21.929-19.386-37.646-24.819
		c-15.693-5.451-32.961-8.138-51.744-8.138c-25.266,0-47.184,3.896-65.889,11.728c-18.648,7.851-32.915,18.85-42.824,32.996
		c-9.93,14.166-14.918,30.347-14.918,48.563c0,17.448,4.459,32.036,13.334,43.802c8.909,11.747,19.604,21.038,32.051,27.871
		c12.493,6.833,28.658,14.032,48.498,21.633c15.447,6.065,27.389,11.19,35.904,15.355c8.504,4.166,15.582,9.349,21.232,15.549
		c5.662,6.2,8.516,13.608,8.516,22.188c0,13.917-6.156,24.723-18.559,32.44c-12.357,7.698-29.479,11.553-51.352,11.553
		c-21.108,0-37.555-2.783-49.217-8.329c-11.729-5.565-17.57-14.049-17.57-25.415c0-2.783,0.17-5.45,0.54-7.965
		c0.415-2.532,0.595-4.3,0.595-5.317c0.754-3.8,1.124-8.194,1.124-13.283c0-5.565-2.169-10.114-6.561-13.646
		c-4.337-3.552-10.01-5.317-16.931-5.317c-9.56,0-16.771,3.666-21.692,10.999c-4.853,7.333-7.291,17.965-7.291,31.863
		c0,26.298,10.279,45.838,30.883,58.583c20.603,12.784,47.98,19.193,82.267,19.193c38.623,0,69.473-8.023,92.514-24.107
		c3.66-2.553,7.028-5.283,10.107-8.186c2.216,5.176,5.078,9.871,8.597,14.08c9.538,11.363,22.267,17.083,38.253,17.083
		c20.333,0,37.173-10.635,50.586-31.883c3.617,9.865,8.909,17.64,16.031,23.322c4.113,3.308,8.47,5.652,13.054,7.043
		c-4.585,10.464-8.615,20.635-12.065,30.501c-11.582,33.014-17.39,61.903-17.39,86.682c0,17.431,3.358,31.077,10.009,40.962
		c6.741,9.85,17.021,14.78,30.917,14.78c22.906,0,40.308-16.371,52.171-49.117c11.83-32.749,19.436-73.518,22.771-122.291
		c15.953-0.271,31.299-5.086,45.971-14.436c8.47,9.598,19.547,14.436,33.195,14.436c16.2,0,30.682-4.3,43.454-12.919
		c7.103-4.792,13.959-10.346,20.559-16.645c5.02,7.321,11.297,13.5,18.839,18.545c10.908,7.333,24.143,11.019,39.59,11.019
		c18.266,0,34.635-6.413,49.014-19.177c14.447-12.764,24.098-29.77,28.984-51.021c10.457-0.433,20.426-1.61,29.918-3.487
		c-0.098,3.298-0.159,6.607-0.159,9.938c0,22.246,1.989,38.427,5.977,48.543c3.988,10.117,10.863,15.203,20.638,15.203
		c8.021,0,13.862-2.093,17.581-6.277c3.752-4.184,7.01-12.207,9.863-24.069c3.854-15.434,8.875-30.118,15.076-44.015
		c6.156-13.915,12.402-25.087,18.704-33.571c6.292-8.465,11.414-12.707,15.268-12.707c2.854,0,4.258,2.015,4.258,6.065
		c0,1.786-0.27,5.183-0.786,10.25c-0.765,3.781-1.169,7.582-1.169,11.382c0,11.633,3.539,20.845,10.628,27.68
		c7.077,6.854,17.435,10.251,31.085,10.251c3.98,0,7.886-0.357,11.712-1.063c0.896,15.693,4.61,28.584,11.194,38.608
		c7.605,11.631,19.738,17.467,36.488,17.467c10.094,0,20.532-3.187,31.315-9.54c-1.236,1.089-2.482,2.154-3.735,3.185
		C992.039,380.771,856.96,498.703,867.16,646.713c1.527,22.179,4.751,44.87,9.096,67.532c-19.949,3.905-36.343,17.902-43.021,36.926
		c-5.651,16.275-3.382,33.915,5.706,48.158c12.44-15.593,31.032-25.046,50.864-26.292c1.136,4.278,2.297,8.537,3.477,12.774
		c-19.367,0.319-37.567,10.173-47.914,26.857c-12.447,20.04-10.999,45.358,3.572,63.882c14.648,18.522,39.308,26.162,62.079,19.348
		c5.423-1.63,10.461-4.002,15.017-6.977c1.469,4.256,2.914,8.428,4.334,12.515c-4.824,2.834-10.04,5.129-15.576,6.784
		c-15.852,4.78-32.467,3.762-47.239-2.168c-1.313,16.295,4.572,32.495,16.638,44.303c13.75,13.492,33.5,19.135,52.418,15.222
		c3.336-4.448,7.203-8.47,11.52-11.998c1.561,4.873,2.967,9.442,4.195,13.689c-9.426,9.346-15.439,21.851-16.399,35.621
		c-1.524,20.784,8.729,40.33,26.13,51.304c7.506,8.701,12.355,12.807,25.835,12.807h369.833c0,0,2.288,0,5.661,0h363.151
		c4.1,0,7.459-3.414,7.504-7.467c0-0.229,0-0.747-0.045-1.034l-7.459-73.421c-0.416-3.972-4.09-6.909-8.156-6.506
		c-16.852,0-27.029-6.448-31.332-14.549c-1.641-3.208-2.438-6.642-2.404-10.078c0.102-3.397,0.955-6.603,2.686-9.54
		c3.83-6.412,11.84-10.902,23.76-9.808c4.033,0.364,7.65-2.65,8.021-6.603c0.078-0.711,0.033-1.384-0.102-2.016l-4.988-38.044
		c-0.078-0.577-0.213-1.153-0.449-1.71l0.135-0.113c-0.135-0.039-0.225-0.154-0.303-0.251c-0.686-1.439-1.764-2.59-3.168-3.302
		l-222.833-154.701c0.797-6.484,1.461-12.989,1.984-19.492c15.292,4.326,32.877,6.509,52.81,6.509
		c38.622,0,69.459-8.023,92.512-24.108c3.92-2.737,7.499-5.68,10.754-8.817c1.82,5.887,4.397,11.239,7.749,16.052
		c7.336,10.462,16.817,15.74,28.399,15.74c10.055,0,19.436-4.625,28.209-13.859c8.74-9.211,15.301-22.455,19.705-39.635
		c0,16.909,2.887,30.076,8.672,39.445c5.809,9.347,14.863,14.049,27.232,14.049c16.211,0,30.691-4.3,43.476-12.918
		c5.489-3.707,10.83-7.87,16.018-12.479c1.747,2.872,3.726,5.587,5.968,8.124c10.145,11.515,23.107,17.273,38.824,17.273
		c10.808,0,20.267-2.283,28.377-6.851c8.111-4.551,17.57-13.534,28.4-26.952c10.279,22.536,25.209,33.803,44.824,33.803
		c12.313,0,24.805-4.51,37.443-13.492c12.594-8.967,24.187-19.772,34.78-32.401c4.843-5.585,7.291-13.398,7.291-23.515
		C2050.829,639.016,2049.863,634.831,2047.976,631.819z M1967.248,484.996c3.471-27.545,7.639-49.868,12.525-66.932
		c4.887-17.064,9.797-25.586,14.684-25.586c2.336,0,4.291,2.628,5.977,7.945c1.662,5.317,2.527,12.765,2.527,22.382
		c0,37.429-14.447,86.99-43.24,148.683C1961.26,541.411,1963.742,512.579,1967.248,484.996z M353.134,288.749
		c-2.349,10.864-6.056,19.599-11.224,26.143c-5.156,6.603-10.548,9.885-16.221,9.885c-5.651,0-10.089-1.9-13.347-5.682
		c-3.168-3.8-4.808-9.614-4.808-17.447c0-14.165,2.719-27.563,8.11-40.212c5.393-12.631,12.661-22.823,21.817-30.54
		c9.145-7.696,19.153-11.688,29.938-11.938L353.134,288.749z M406.023,497.357c-2.572,0-4.842-2.148-6.74-6.468
		c-1.955-4.28-2.91-10.48-2.91-18.562c0-15.701,3.225-35.029,9.65-58.045c5.202-18.583,11.929-37.946,20.16-58.028
		c1.902-1.041,3.813-2.192,5.734-3.47c-1.425,39.421-4.274,72.761-8.516,100.003C418.752,482.503,412.943,497.357,406.023,497.357z
		 M524.207,282.107c-4.617,11.766-10.875,21.615-18.75,29.561c-7.842,7.984-16.402,12.996-25.659,15.009
		c0.247-6.333,0.382-15.296,0.382-26.949c0-21.46,0.146-37.793,0.371-48.908c13.145-19.215,24.355-28.831,33.602-28.831
		c5.168,0,9.29,1.958,12.357,5.873c3.123,3.936,4.673,9.674,4.673,17.275C531.183,258,528.813,270.342,524.207,282.107z
		 M703.975,313.011c-6.021,6.583-13.178,9.865-21.424,9.865c-7.471,0-13.941-3.665-19.469-10.996
		c-5.572-7.314-8.324-17.949-8.324-31.863c0-17.698,3.381-31.56,10.223-41.292c6.83-9.712,15.402-14.726,25.682-14.726h1.932
		c-0.764,4-1.168,8.237-1.168,12.269c0,9.617,2.168,18.783,6.393,27.383c4.258,8.581,10.357,15.601,18.367,20.899
		C714.119,296.931,710.029,306.447,703.975,313.011z M1290.068,197.958c22.962,3.57,26.771,11.997,33.151,22.9
		c6.291,10.748,2.539,21.632-6.381,31.209c-8.931,9.656-29.298-1.15-47.06-27.639
		C1251.906,197.958,1290.068,197.958,1290.068,197.958z M1345.463,681.839c-7.976,9.637-16.637,17.563-26.006,23.744
		c-9.381,6.2-19.975,9.292-31.871,9.292c-16.301,0-28.4-7.275-36.287-21.844c-0.861-1.594-1.667-3.249-2.434-4.945
		c-6.179,5.816-13.891,11.294-23.146,16.424c-12.525,6.909-25.939,10.365-40.207,10.365c-19.469,0-34.578-5.183-45.363-15.566
		c-1.96-1.896-3.737-3.923-5.34-6.073c-4.573,4.385-9.366,8.376-14.409,11.945c-9.089,6.47-18.054,9.694-26.974,9.694
		c-14.087,0-24.86-8.101-32.286-24.301c-7.796,9.655-14.581,16.123-20.423,19.405c-5.854,3.243-12.684,4.896-20.469,4.896
		c-11.313,0-20.637-4.146-27.928-12.4c-7.359-8.332-11.01-19.08-11.01-32.401c0-14.567,3.168-28.082,9.459-40.578
		c6.291-12.455,14.998-22.669,25.996-30.595c11.043-7.91,23.4-12.594,37.117-14.053c3.539-35.336,10.29-65.531,20.199-90.579
		c9.93-25.029,22.962-37.564,39.094-37.564c7.954,0,14.615,3.55,19.852,10.671c5.324,7.085,7.976,17.833,7.976,32.23
		c0,20.403-5.123,44.244-15.301,71.576c-10.224,27.315-23.872,55.379-40.937,84.15c0.764,10.558,2.403,18.12,4.887,22.668
		c2.505,4.551,5.707,6.835,9.604,6.835c5.044,0,10.1-2.207,15.301-6.564c2.905-2.435,6.338-5.769,10.313-10
		c-0.544-3.669-0.831-7.521-0.831-11.576c0-12.571,2.662-24.263,8.055-35.106c5.393-10.825,12.863-19.444,22.412-25.818
		c9.549-6.371,20.334-9.56,32.377-9.56c10.762,0,19.367,3.131,25.895,9.408c6.471,6.313,9.74,14.8,9.74,25.566
		c0,12.555-4.617,23.342-13.762,32.363c-9.189,9.04-24.727,16.162-46.6,21.44c4.606,8.406,13.447,12.591,26.4,12.591
		c8.369,0,17.828-2.899,28.523-8.639c9.085-4.875,17.065-11.039,24.052-18.462c-1.084-7.412-1.628-15.409-1.628-23.995
		c0-22.229,2.887-47.545,8.729-75.953c5.853-28.411,14.492-52.825,25.861-73.229c11.402-20.388,24.984-30.598,40.791-30.598
		c8.874,0,15.896,4.049,20.962,12.168c5.112,8.101,7.661,19.715,7.661,34.84c0,21.67-6.122,46.817-18.334,75.396
		c-12.244,28.601-28.859,56.934-49.811,84.958c1.313,7.466,3.438,12.783,6.369,15.988c3,3.186,6.887,4.78,11.694,4.78
		c7.605,0,14.313-2.149,20.054-6.43c5.751-4.261,13.098-11.595,21.973-21.979c2.203-2.554,4.752-3.819,7.505-3.819
		c2.404,0,4.303,1.075,5.707,3.263c1.404,2.167,2.067,5.201,2.067,9.021C1350.732,672.187,1348.979,677.829,1345.463,681.839z
		 M1511.346,931.947c21.424-2.109,37.141-20.941,35.006-42.054c-0.584-5.644-2.404-10.922-5.156-15.492l158.895,20.98l3.258,24.685
		c-13.684,1.172-23.457,8.004-28.805,17.025c-3.033,5.05-4.583,10.809-4.718,16.584c-0.135,5.72,1.19,11.556,4.123,17.027
		c6.021,11.324,18.569,20.613,38.409,22.169l6.021,59.006l-327.496-3.882c0.18-1.808,0.073-3.784-0.387-5.951
		c-5.044-24.053,12.991-78.857,33.348-110.069c6.541-10.011,18.545-35.299,30.598-69.063l25.629,3.389
		c-8.201,7.853-12.818,19.157-11.549,31.271C1470.656,918.665,1489.811,934.061,1511.346,931.947z M1897.91,669.536
		c-4.887,3.936-9.773,5.874-14.716,5.874c-12.863,0-19.289-9.233-19.289-27.68c0-17.447,4.707-33.322,14.132-47.604
		c9.358-14.3,21.143-23.589,35.32-27.869c-0.551,13.646-0.786,23.512-0.786,29.579c0,16.93,1.27,32.228,3.854,45.894
		C1908.954,658.366,1902.798,665.619,1897.91,669.536z"/>
	<path fill="#FFFFFF" d="M1114.423,489.202c-1.213-3.82-2.662-5.721-4.303-5.721c-3.517,0-7.055,6.143-10.594,18.446
		c-3.517,12.284-6.505,28.368-9.043,48.216c-2.483,19.869-4.303,40.617-5.403,62.287c20.738-44.435,31.163-80.138,31.163-107.086
		C1116.243,498.414,1115.613,493.038,1114.423,489.202z"/>
	<path fill="#FFFFFF" d="M1051.681,612.969c-10.2,3.111-18.671,9.811-25.456,20.078c-6.74,10.307-10.145,21.728-10.145,34.282
		c0,13.302,4.617,19.982,13.896,19.982c3.539,0,7.066-1.421,10.605-4.262c3.471-2.821,7.965-8.062,13.301-15.721
		c-1.809-9.811-2.752-20.845-2.752-33.035C1051.131,629.92,1051.311,622.834,1051.681,612.969z"/>
	<path fill="#FFFFFF" d="M1316.514,504.498c0-13.82-2.584-20.729-7.785-20.729c-4.258,0-9.044,7.543-14.447,22.648
		c-5.393,15.145-10.1,33.88-14.166,56.301c-4.123,22.4-6.348,43.88-6.707,64.474c13.178-21.306,23.637-42.669,31.433-64.091
		C1312.626,541.718,1316.514,522.196,1316.514,504.498z"/>
	<path fill="#FFFFFF" d="M1193.039,624.447c0-3.437-1-6.238-2.955-8.329c-1.932-2.093-4.572-3.149-7.92-3.149
		c-6.875,0-12.52,3.955-17.227,11.766c-4.695,7.833-6.938,17.296-6.938,28.43v0.519c11-2.534,19.408-6.354,25.744-11.46
		C1190.035,637.096,1193.039,631.186,1193.039,624.447z"/>
	<path fill="#FFFFFF" d="M1563.438,1037.232c16.829-1.671,29.007-16.316,27.344-32.823c-1.719-16.471-16.671-28.427-33.421-26.816
		c-16.75,1.69-29.029,16.316-27.311,32.804C1531.736,1026.884,1546.666,1038.882,1563.438,1037.232z"/>
	<path fill="#FFFFFF" d="M1436.369,989.648c-11.998,1.228-20.704,11.727-19.514,23.454c1.18,11.769,11.908,20.349,23.873,19.177
		c12.043-1.208,20.715-11.708,19.502-23.457C1459.018,997.037,1448.334,988.495,1436.369,989.648z"/>
</g>
</svg>
