<?xml version="1.0"?>
<svg xmlns="http://www.w3.org/2000/svg" viewBox="0 0 64 64" width="512" height="512">
    <g id="Outline">
        <g>
            <path fill="#fff" d="M32.555,38.832a4.4,4.4,0,0,1,4.89,0,6.4,6.4,0,0,0,7.11,0,4.4,4.4,0,0,1,4.89,0,6.343,6.343,0,0,0,1.442.7,1,1,0,0,0,.661-1.888,4.368,4.368,0,0,1-.993-.481,6.4,6.4,0,0,0-7.11,0,4.4,4.4,0,0,1-4.89,0,6.4,6.4,0,0,0-7.11,0,4.385,4.385,0,0,1-4.208.363A1,1,0,0,0,25.9,38.1,13.995,13.995,0,1,0,53,43q0-.6-.053-1.2a1,1,0,1,0-1.992.175Q51,42.484,51,43a12,12,0,0,1-24,0,11.836,11.836,0,0,1,.468-3.284A6.37,6.37,0,0,0,32.555,38.832Z"/>
            <circle fill="#fff" cx="5" cy="45" r="1"/>
            <path fill="#fff" d="M16.964,55.33a1,1,0,1,0,1.366.366A1,1,0,0,0,16.964,55.33Z"/>
            <circle fill="#fff" cx="8" cy="57" r="1"/>
            <path fill="#fff" d="M54.4,31.9A8,8,0,0,0,44.428,19.44a1,1,0,0,0-.428.82v5.786a1,1,0,0,0,.667.943,16.978,16.978,0,0,1,5.007,29.233A1,1,0,0,0,50.3,58H52a2,2,0,0,1,2,2H24a2,2,0,0,1,2-2h1.7a1,1,0,0,0,.629-1.778,16.915,16.915,0,0,1-5.6-8.341,11.8,11.8,0,0,0-1.384-8.138L19.2,36.026a.98.98,0,0,0-.253-.279A7.84,7.84,0,0,0,16.16,31.87L12.6,29.2a1,1,0,0,0-1.2,1.6l3.559,2.67a5.914,5.914,0,0,1,1.55,1.744,11.784,11.784,0,0,0-6.671-.6,1,1,0,1,0,.391,1.962,9.788,9.788,0,0,1,5.865.63l-2.177,1.256a9.794,9.794,0,0,1-8.868.5L7.227,37.7a1,1,0,0,0-1-1.732L2.51,38.117a1,1,0,0,0-.051,1.7,11.931,11.931,0,0,0,2.952,1.41A4.189,4.189,0,0,0,2,45c0,2.206,2.243,4,5,4,.059,0,.114-.012.172-.014a6.548,6.548,0,0,0-.56,1.3.988.988,0,0,0-.443,1.1,1,1,0,0,0,1.23.7A2.244,2.244,0,0,1,8,52c1.654,0,3,1.794,3,4s-1.346,4-3,4-3-1.794-3-4a5.061,5.061,0,0,1,.276-1.659,1,1,0,0,0-1.889-.655A7.033,7.033,0,0,0,3,56c0,3.309,2.243,6,5,6a5.168,5.168,0,0,0,4.72-4.039A6.167,6.167,0,0,0,17.8,61.1a4.3,4.3,0,0,0,2.166-.57,4.6,4.6,0,0,0,2.206-3.4,6.66,6.66,0,0,0-.876-4.3c-.115-.2-.241-.391-.372-.575a.582.582,0,0,0,.046-.053,11.982,11.982,0,0,0,.753-1.321,18.83,18.83,0,0,0,3.5,5.2A4.007,4.007,0,0,0,22,60v1a1,1,0,0,0,1,1H55a1,1,0,0,0,1-1V60a4.006,4.006,0,0,0-3.223-3.924A18.952,18.952,0,0,0,54.4,31.9ZM46,25.354V20.807a6,6,0,0,1,7.141,9.528A18.989,18.989,0,0,0,46,25.354ZM19.609,40.743a9.791,9.791,0,0,1,.5,8.868l-1.257-2.177a9.86,9.86,0,0,1-1.312-4.375,1.017,1.017,0,0,0,0-.281,9.763,9.763,0,0,1,.813-4.212ZM14.234,50a4.411,4.411,0,0,1-1.292-3.391l2.449-1.428c.135-.079.257-.183.388-.27a11.911,11.911,0,0,0,1.343,3.524l.859,1.489A4.677,4.677,0,0,0,14.234,50Zm.683-9.808.965-.556a11.724,11.724,0,0,0-.353,2.915,5.916,5.916,0,0,1-1.146.9l-2.4,1.4a3.863,3.863,0,0,0-2.113-3.12A11.833,11.833,0,0,0,14.917,40.191ZM4,45c0-1.084,1.374-2,3-2s3,.916,3,2-1.374,2-3,2S4,46.084,4,45Zm4.838,5.091A4.362,4.362,0,0,1,10.12,48.6l.9-.652a6.42,6.42,0,0,0,1.688,3.331,4.63,4.63,0,0,0-.676,1.189A4.977,4.977,0,0,0,8.838,50.091Zm11.355,6.736a2.643,2.643,0,0,1-1.229,1.967c-1.434.826-3.495-.054-4.6-1.964a4.661,4.661,0,0,1-.631-3,2.646,2.646,0,0,1,1.229-1.967,2.359,2.359,0,0,1,1.193-.311,4.205,4.205,0,0,1,3.405,2.275A4.655,4.655,0,0,1,20.193,56.827Z"/>
            <path fill="#fff" d="M49,13a12.777,12.777,0,0,0-3,.368V11.816A2.993,2.993,0,0,0,45,6H44V3a1,1,0,0,0-1-1H35a1,1,0,0,0-1,1V6H29a1,1,0,0,0-1,1,5.009,5.009,0,0,0,4,4.9V25.354A19.1,19.1,0,0,0,21.607,35.387a1,1,0,1,0,1.831.8,17.083,17.083,0,0,1,9.9-9.2A1,1,0,0,0,34,26.046V12H44v4a1,1,0,0,0,2,0v-.565A10.852,10.852,0,0,1,49,15,11.013,11.013,0,0,1,60,26a10.894,10.894,0,0,1-2.152,6.519,1,1,0,0,0,.21,1.4.986.986,0,0,0,.593.2,1,1,0,0,0,.8-.405A12.882,12.882,0,0,0,62,26,13.015,13.015,0,0,0,49,13ZM36,4h6V6H36ZM30.171,8H45a1,1,0,0,1,0,2H33A3.006,3.006,0,0,1,30.171,8Z"/>
        </g>
    </g>
</svg>
